<svg width="30" height="41" viewBox="0 0 30 41" fill="none" xmlns="http://www.w3.org/2000/svg">
<path opacity="0.3" d="M26.25 14.9999C26.25 8.828 21.1719 3.74988 15 3.74988C8.75 3.74988 3.75 8.828 3.75 14.9999C3.75 16.0155 4.0625 17.4999 4.92188 19.5311C5.70312 21.4061 6.875 23.5936 8.20312 25.7811C10.4688 29.3749 13.0469 32.8124 15 35.3124C16.875 32.8124 19.4531 29.3749 21.7188 25.7811C23.0469 23.5936 24.2188 21.4061 25 19.5311C25.8594 17.4999 26.25 16.0155 26.25 14.9999ZM30 14.9999C30 21.8749 20.8594 33.9843 16.7969 39.0624C15.8594 40.2343 14.0625 40.2343 13.125 39.0624C9.14062 33.9843 0 21.8749 0 14.9999C0 6.71863 6.71875 -0.00012207 15 -0.00012207C23.2812 -0.00012207 30 6.71863 30 14.9999ZM17.5 14.9999C17.5 13.6718 16.3281 12.4999 15 12.4999C13.5938 12.4999 12.5 13.6718 12.5 14.9999C12.5 16.4061 13.5938 17.4999 15 17.4999C16.3281 17.4999 17.5 16.4061 17.5 14.9999ZM8.75 14.9999C8.75 12.8124 9.92188 10.7811 11.875 9.60925C13.75 8.5155 16.1719 8.5155 18.125 9.60925C20 10.7811 21.25 12.8124 21.25 14.9999C21.25 17.2655 20 19.2968 18.125 20.4686C16.1719 21.5624 13.75 21.5624 11.875 20.4686C9.92188 19.2968 8.75 17.2655 8.75 14.9999Z" fill="#8F8B8D"/>
</svg>
