<svg width="80" height="80" viewBox="0 0 80 80" fill="none" xmlns="http://www.w3.org/2000/svg">
<path d="M62 36H66C67 36 68 37 68 38V42C68 43.125 67 44 66 44H62C60.875 44 60 43.125 60 42V38C60 37 60.875 36 62 36ZM4 44C4 41.875 5.75 40 8 40H40C42.125 40 44 41.875 44 44V45.625L24.5 60C24.375 60.125 24.125 60.25 24 60.25C23.75 60.25 23.5 60.125 23.375 60L4 45.625V44ZM27 63.25L44 50.625V68C44 70.25 42.125 72 40 72H8C5.75 72 4 70.25 4 68V50.625L21 63.25C21.75 63.875 22.875 64.25 24 64.25C25 64.25 26.125 63.875 27 63.25Z" fill="#FF9500"/>
<path opacity="0.4" d="M4 45.625C10.375 50.5 16.875 55.25 23.375 60C23.5 60.125 23.75 60.25 24 60.25C24.125 60.25 24.375 60.125 24.5 60C31 55.25 37.5 50.5 44 45.625V50.625L27 63.25C26.125 63.875 25 64.25 24 64.25C22.875 64.25 21.75 63.875 21 63.25L4 50.625V45.625ZM12 12C12 9.875 13.75 8 16 8H56C58.125 8 60 9.875 60 12V24H32C27.5 24 24 27.625 24 32V36H12V12ZM28 32C28 29.875 29.75 28 32 28H72C74.125 28 76 29.875 76 32V56C76 58.25 74.125 60 72 60H48V44C48 39.625 44.375 36 40 36H28V32ZM60 38V42C60 43.125 60.875 44 62 44H66C67 44 68 43.125 68 42V38C68 37 67 36 66 36H62C60.875 36 60 37 60 38Z" fill="#FF9500"/>
</svg>
