<svg width="80" height="80" viewBox="0 0 80 80" fill="none" xmlns="http://www.w3.org/2000/svg">
<path d="M75.5 25.5C74.625 29.125 74.5 33.125 74.875 36.75C74.875 37.25 75 37.625 75 38C75 43.375 71.5 47.75 66.875 49.375C65 50 63.25 50.75 61.875 52.125L58.25 55.75C56.75 57.25 54.75 58 52.625 58H47.25C45.125 58 43.125 58.875 41.625 60.375L40.25 61.75C38.75 63.25 36.75 64 34.625 64H28.875C26.75 64 24.75 64.875 23.25 66.375L18.75 70.875C17.125 72.375 14.625 72.375 13.125 70.875C11.5 69.25 11.5 66.75 13.125 65.25L17.625 60.75C19.125 59.25 19.875 57.125 19.875 55V49.375C19.875 47.25 20.75 45.125 22.25 43.625L23.5 42.375C25 40.875 25.875 38.875 25.875 36.75V31.375C25.875 29.25 26.75 27.125 28.25 25.625L31.875 22C33.25 20.625 33.875 18.875 34.5 17.125C36.25 12.5 40.625 9 46 9C46.375 9 46.75 9.125 47.25 9.125C50.875 9.5 54.875 9.375 58.5 8.5C59.625 8.25 60.75 8 62 8C69.625 8 76 14.375 76 22C76 23.25 75.75 24.375 75.5 25.5ZM63.375 23.5C64.125 22.75 64.125 21.375 63.375 20.625C62.625 19.875 61.25 19.875 60.5 20.625L46.5 34.625L42 39.25V32C42 31 41 30 40 30C38.875 30 38 31 38 32V43.25L32.5 48.625C31.75 49.375 31.75 50.75 32.5 51.5C33.25 52.25 34.625 52.25 35.375 51.5L41.375 45.5L48.75 38H60C61 38 62 37.125 62 36C62 35 61 34 60 34H52.75L63.375 23.5Z" fill="#34C759"/>
<path opacity="0.4" d="M4 29.375C4 26.75 5 24.125 7 22C7.25 21.75 7.5 21.5 7.75 21.25C10.25 19.25 12.75 16.75 14.375 14C14.875 13.125 15.5 12.375 16.125 11.625C18.5 9.25 21.625 8 24.75 8C27.875 8 31 9.25 33.375 11.625C34.125 12.25 34.75 13.125 35.25 14C35.375 14.25 35.5 14.5 35.75 14.75C35.5 15.125 35.25 15.5 35.125 15.875C35 16.125 34.875 16.25 34.75 16.5C34.75 16.625 34.75 16.75 34.625 16.875C34.625 16.875 34.625 17 34.625 17.125C34 18.875 33.25 20.75 31.875 22L28.25 25.625C26.75 27.125 25.875 29.25 25.875 31.375V36.75C25.875 38.875 25.125 40.875 23.625 42.375L22.25 43.75C20.75 45.25 20 47.25 20 49.375V55.125C20 57.25 19.125 59.25 17.625 60.75C17 61.375 16.375 62 15.75 62.625C14.5 61.375 13.75 59.625 13.75 57.75V56.125C13.75 54.375 13 52.5 11.75 51.25L8.375 48C7.125 46.625 6.375 44.875 6.375 43.125V38.625C6.375 37 5.75 35.375 5 34C4.25 32.5 4 31 4 29.375ZM32.5 48.625L38 43.25V32C38 31 38.875 30 40 30C41 30 42 31 42 32V39.25L46.5 34.625L60.5 20.625C61.25 19.875 62.625 19.875 63.375 20.625C64.125 21.375 64.125 22.75 63.375 23.5L52.75 34H60C61 34 62 35 62 36C62 37.125 61 38 60 38H48.75L41.375 45.5L35.375 51.5C34.625 52.25 33.25 52.25 32.5 51.5C31.75 50.75 31.75 49.375 32.5 48.625Z" fill="#34C759"/>
</svg>
