<svg width="20" height="54" viewBox="0 0 20 54" fill="none" xmlns="http://www.w3.org/2000/svg">
<g opacity="0.4">
<path d="M9.10156 14.6484L2.85156 8.39844C2.34375 7.92969 2.34375 7.10938 2.85156 6.64062C3.32031 6.13281 4.14062 6.13281 4.60938 6.64062L10 11.9922L15.3516 6.64062C15.8203 6.13281 16.6406 6.13281 17.1094 6.64062C17.6172 7.10938 17.6172 7.92969 17.1094 8.39844L10.8594 14.6484C10.3906 15.1562 9.57031 15.1562 9.10156 14.6484Z" fill="#AF52DE"/>
<path d="M9.10156 31.6484L2.85156 25.3984C2.34375 24.9297 2.34375 24.1094 2.85156 23.6406C3.32031 23.1328 4.14062 23.1328 4.60938 23.6406L10 28.9922L15.3516 23.6406C15.8203 23.1328 16.6406 23.1328 17.1094 23.6406C17.6172 24.1094 17.6172 24.9297 17.1094 25.3984L10.8594 31.6484C10.3906 32.1562 9.57031 32.1562 9.10156 31.6484Z" fill="#AF52DE"/>
<path d="M9.10156 48.6484L2.85156 42.3984C2.34375 41.9297 2.34375 41.1094 2.85156 40.6406C3.32031 40.1328 4.14062 40.1328 4.60938 40.6406L10 45.9922L15.3516 40.6406C15.8203 40.1328 16.6406 40.1328 17.1094 40.6406C17.6172 41.1094 17.6172 41.9297 17.1094 42.3984L10.8594 48.6484C10.3906 49.1562 9.57031 49.1562 9.10156 48.6484Z" fill="#AF52DE"/>
</g>
</svg>
