<svg width="80" height="80" viewBox="0 0 80 80" fill="none" xmlns="http://www.w3.org/2000/svg">
<path d="M0 14C0 10.75 2.625 8 6 8H46C49.25 8 52 10.75 52 14V20H58.25C60.375 20 62.5 20.875 64 22.375L73.625 32C75.125 33.5 76 35.625 76 37.75V40V44V52C78.125 52 80 53.875 80 56C80 58.25 78.125 60 76 60H72H71.75C70.875 53.25 65 48 58 48C50.875 48 45 53.25 44.125 60H35.75C34.875 53.25 29 48 21.875 48C14.875 48 9 53.25 8.125 60H6C2.625 60 0 57.375 0 54V14ZM52 40H68V37.75L58.25 28H52V40ZM33.25 14.5C32.5 13.875 31.5 13.875 30.75 14.5L14.75 26.5C14 27 13.75 27.875 14 28.75C14.375 29.5 15.125 30 16 30H22.75L18.125 39.125C17.75 40 18 41 18.625 41.625C19.375 42.125 20.375 42.25 21.125 41.625L37.125 29.625C37.875 29.125 38.125 28.25 37.875 27.375C37.625 26.625 36.75 26 36 26H29.125L33.75 17C34.125 16.125 33.875 15.125 33.25 14.5Z" fill="#00C7BE"/>
<path opacity="0.4" d="M12 62C12 58.5 13.875 55.25 17 53.375C20 51.625 23.875 51.625 27 53.375C30 55.25 32 58.5 32 62C32 65.625 30 68.875 27 70.75C23.875 72.5 20 72.5 17 70.75C13.875 68.875 12 65.625 12 62ZM14 28.75C13.75 27.875 14 27 14.75 26.5L30.75 14.5C31.5 13.875 32.5 14 33.25 14.5C33.875 15.125 34.125 16.125 33.75 17L29.125 26H36C36.75 26 37.625 26.625 37.875 27.375C38.125 28.25 37.875 29.125 37.125 29.625L21.125 41.625C20.375 42.25 19.375 42.125 18.625 41.625C18 41 17.75 40 18.125 39.125L22.75 30H16C15.125 30 14.375 29.5 14 28.75ZM48 62C48 58.5 49.875 55.25 53 53.375C56 51.625 59.875 51.625 63 53.375C66 55.25 68 58.5 68 62C68 65.625 66 68.875 63 70.75C59.875 72.5 56 72.5 53 70.75C49.875 68.875 48 65.625 48 62Z" fill="#00C7BE"/>
</svg>
