<svg width="80" height="80" viewBox="0 0 80 80" fill="none" xmlns="http://www.w3.org/2000/svg">
<path d="M8 18C8 14.75 10.625 12 14 12L32.625 12.125C34.75 12.125 36.75 12.875 38.25 14.375L59.25 35.375C62.375 38.5 62.375 43.625 59.25 46.75L42.625 63.375C39.5 66.5 34.375 66.5 31.25 63.375L10.25 42.375C8.75 40.875 8 38.875 8 36.75V18ZM22 22C19.75 22 18 23.875 18 26C18 28.25 19.75 30 22 30C24.125 30 26 28.25 26 26C26 23.875 24.125 22 22 22Z" fill="#007AFF"/>
<path opacity="0.4" d="M45.875 15C45.875 14.25 46.25 13.5 46.875 12.875C47.375 12.375 48.125 12 48.875 12C49.75 12 50.5 12.375 51.125 13L67 29.125C70.375 32.375 72 36.75 72 41C72 45.375 70.375 49.75 67 53L53 67.125C52.5 67.75 51.75 68 50.875 68C50.125 68 49.375 67.75 48.75 67.125C47.625 66 47.625 64.125 48.75 63L62.75 48.75C67 44.5 67 37.625 62.75 33.375L46.75 17.125C46.25 16.625 45.875 15.875 45.875 15Z" fill="#007AFF"/>
</svg>
